<mxfile host="app.diagrams.net" modified="2023-10-24T16:40:59.283Z" agent="Mozilla/5.0 (Windows NT 10.0; Win64; x64) AppleWebKit/537.36 (KHTML, like Gecko) Chrome/118.0.0.0 Safari/537.36" etag="4QFrw2XxVa4Tbmzd87n_" version="22.0.6" type="device">
  <diagram id="C5RBs43oDa-KdzZeNtuy" name="Page-1">
    <mxGraphModel dx="840" dy="424" grid="1" gridSize="10" guides="1" tooltips="1" connect="1" arrows="1" fold="1" page="1" pageScale="1" pageWidth="827" pageHeight="1169" math="0" shadow="0">
      <root>
        <mxCell id="WIyWlLk6GJQsqaUBKTNV-0" />
        <mxCell id="WIyWlLk6GJQsqaUBKTNV-1" parent="WIyWlLk6GJQsqaUBKTNV-0" />
        <mxCell id="1wTIjPFLk3U6bIbS4Kjy-2" value="" style="edgeStyle=orthogonalEdgeStyle;rounded=0;orthogonalLoop=1;jettySize=auto;html=1;" edge="1" parent="WIyWlLk6GJQsqaUBKTNV-1" source="1wTIjPFLk3U6bIbS4Kjy-0" target="1wTIjPFLk3U6bIbS4Kjy-1">
          <mxGeometry relative="1" as="geometry" />
        </mxCell>
        <mxCell id="1wTIjPFLk3U6bIbS4Kjy-0" value="int main()" style="ellipse;whiteSpace=wrap;html=1;" vertex="1" parent="WIyWlLk6GJQsqaUBKTNV-1">
          <mxGeometry x="570" y="50" width="120" height="60" as="geometry" />
        </mxCell>
        <mxCell id="1wTIjPFLk3U6bIbS4Kjy-4" value="" style="edgeStyle=orthogonalEdgeStyle;rounded=0;orthogonalLoop=1;jettySize=auto;html=1;" edge="1" parent="WIyWlLk6GJQsqaUBKTNV-1" source="1wTIjPFLk3U6bIbS4Kjy-1" target="1wTIjPFLk3U6bIbS4Kjy-3">
          <mxGeometry relative="1" as="geometry" />
        </mxCell>
        <mxCell id="1wTIjPFLk3U6bIbS4Kjy-1" value="unsigned int N" style="whiteSpace=wrap;html=1;" vertex="1" parent="WIyWlLk6GJQsqaUBKTNV-1">
          <mxGeometry x="575" y="160" width="110" height="30" as="geometry" />
        </mxCell>
        <mxCell id="1wTIjPFLk3U6bIbS4Kjy-6" value="" style="edgeStyle=orthogonalEdgeStyle;rounded=0;orthogonalLoop=1;jettySize=auto;html=1;entryX=0.5;entryY=0;entryDx=0;entryDy=0;" edge="1" parent="WIyWlLk6GJQsqaUBKTNV-1" source="1wTIjPFLk3U6bIbS4Kjy-3" target="1wTIjPFLk3U6bIbS4Kjy-7">
          <mxGeometry relative="1" as="geometry">
            <mxPoint x="633.8" y="270" as="targetPoint" />
          </mxGeometry>
        </mxCell>
        <mxCell id="1wTIjPFLk3U6bIbS4Kjy-3" value=":cout" style="whiteSpace=wrap;html=1;" vertex="1" parent="WIyWlLk6GJQsqaUBKTNV-1">
          <mxGeometry x="587.5" y="220" width="85" height="20" as="geometry" />
        </mxCell>
        <mxCell id="1wTIjPFLk3U6bIbS4Kjy-9" value="" style="edgeStyle=orthogonalEdgeStyle;rounded=0;orthogonalLoop=1;jettySize=auto;html=1;" edge="1" parent="WIyWlLk6GJQsqaUBKTNV-1" source="1wTIjPFLk3U6bIbS4Kjy-7" target="1wTIjPFLk3U6bIbS4Kjy-8">
          <mxGeometry relative="1" as="geometry" />
        </mxCell>
        <mxCell id="1wTIjPFLk3U6bIbS4Kjy-7" value="&quot;Enter a natural number N:&quot;" style="whiteSpace=wrap;html=1;" vertex="1" parent="WIyWlLk6GJQsqaUBKTNV-1">
          <mxGeometry x="575" y="260" width="110" height="30" as="geometry" />
        </mxCell>
        <mxCell id="1wTIjPFLk3U6bIbS4Kjy-11" value="" style="edgeStyle=orthogonalEdgeStyle;rounded=0;orthogonalLoop=1;jettySize=auto;html=1;" edge="1" parent="WIyWlLk6GJQsqaUBKTNV-1" source="1wTIjPFLk3U6bIbS4Kjy-8" target="1wTIjPFLk3U6bIbS4Kjy-10">
          <mxGeometry relative="1" as="geometry" />
        </mxCell>
        <mxCell id="1wTIjPFLk3U6bIbS4Kjy-8" value=":cin" style="whiteSpace=wrap;html=1;" vertex="1" parent="WIyWlLk6GJQsqaUBKTNV-1">
          <mxGeometry x="592.5" y="310" width="75" height="30" as="geometry" />
        </mxCell>
        <mxCell id="1wTIjPFLk3U6bIbS4Kjy-13" value="" style="edgeStyle=orthogonalEdgeStyle;rounded=0;orthogonalLoop=1;jettySize=auto;html=1;" edge="1" parent="WIyWlLk6GJQsqaUBKTNV-1" source="1wTIjPFLk3U6bIbS4Kjy-10" target="1wTIjPFLk3U6bIbS4Kjy-12">
          <mxGeometry relative="1" as="geometry" />
        </mxCell>
        <mxCell id="1wTIjPFLk3U6bIbS4Kjy-10" value="N" style="whiteSpace=wrap;html=1;" vertex="1" parent="WIyWlLk6GJQsqaUBKTNV-1">
          <mxGeometry x="601.25" y="360" width="57.5" height="40" as="geometry" />
        </mxCell>
        <mxCell id="1wTIjPFLk3U6bIbS4Kjy-15" style="edgeStyle=orthogonalEdgeStyle;rounded=0;orthogonalLoop=1;jettySize=auto;html=1;exitX=0.5;exitY=1;exitDx=0;exitDy=0;entryX=0.5;entryY=0;entryDx=0;entryDy=0;" edge="1" parent="WIyWlLk6GJQsqaUBKTNV-1" source="1wTIjPFLk3U6bIbS4Kjy-12" target="1wTIjPFLk3U6bIbS4Kjy-18">
          <mxGeometry relative="1" as="geometry">
            <mxPoint x="380" y="540" as="targetPoint" />
          </mxGeometry>
        </mxCell>
        <mxCell id="1wTIjPFLk3U6bIbS4Kjy-12" value="int product =1" style="whiteSpace=wrap;html=1;" vertex="1" parent="WIyWlLk6GJQsqaUBKTNV-1">
          <mxGeometry x="585" y="440" width="90" height="40" as="geometry" />
        </mxCell>
        <mxCell id="1wTIjPFLk3U6bIbS4Kjy-20" value="" style="edgeStyle=orthogonalEdgeStyle;rounded=0;orthogonalLoop=1;jettySize=auto;html=1;" edge="1" parent="WIyWlLk6GJQsqaUBKTNV-1" source="1wTIjPFLk3U6bIbS4Kjy-18" target="1wTIjPFLk3U6bIbS4Kjy-19">
          <mxGeometry relative="1" as="geometry" />
        </mxCell>
        <mxCell id="1wTIjPFLk3U6bIbS4Kjy-29" value="" style="edgeStyle=orthogonalEdgeStyle;rounded=0;orthogonalLoop=1;jettySize=auto;html=1;" edge="1" parent="WIyWlLk6GJQsqaUBKTNV-1" source="1wTIjPFLk3U6bIbS4Kjy-18" target="1wTIjPFLk3U6bIbS4Kjy-28">
          <mxGeometry relative="1" as="geometry" />
        </mxCell>
        <mxCell id="1wTIjPFLk3U6bIbS4Kjy-18" value="N&amp;gt;0" style="rhombus;whiteSpace=wrap;html=1;" vertex="1" parent="WIyWlLk6GJQsqaUBKTNV-1">
          <mxGeometry x="340" y="550" width="80" height="40" as="geometry" />
        </mxCell>
        <mxCell id="1wTIjPFLk3U6bIbS4Kjy-22" value="" style="edgeStyle=orthogonalEdgeStyle;rounded=0;orthogonalLoop=1;jettySize=auto;html=1;" edge="1" parent="WIyWlLk6GJQsqaUBKTNV-1" source="1wTIjPFLk3U6bIbS4Kjy-19" target="1wTIjPFLk3U6bIbS4Kjy-21">
          <mxGeometry relative="1" as="geometry" />
        </mxCell>
        <mxCell id="1wTIjPFLk3U6bIbS4Kjy-19" value="int degit = N%10" style="whiteSpace=wrap;html=1;" vertex="1" parent="WIyWlLk6GJQsqaUBKTNV-1">
          <mxGeometry x="320" y="620" width="120" height="40" as="geometry" />
        </mxCell>
        <mxCell id="1wTIjPFLk3U6bIbS4Kjy-24" value="" style="edgeStyle=orthogonalEdgeStyle;rounded=0;orthogonalLoop=1;jettySize=auto;html=1;" edge="1" parent="WIyWlLk6GJQsqaUBKTNV-1" source="1wTIjPFLk3U6bIbS4Kjy-21" target="1wTIjPFLk3U6bIbS4Kjy-23">
          <mxGeometry relative="1" as="geometry" />
        </mxCell>
        <mxCell id="1wTIjPFLk3U6bIbS4Kjy-31" value="" style="edgeStyle=orthogonalEdgeStyle;rounded=0;orthogonalLoop=1;jettySize=auto;html=1;" edge="1" parent="WIyWlLk6GJQsqaUBKTNV-1" source="1wTIjPFLk3U6bIbS4Kjy-21" target="1wTIjPFLk3U6bIbS4Kjy-30">
          <mxGeometry relative="1" as="geometry" />
        </mxCell>
        <mxCell id="1wTIjPFLk3U6bIbS4Kjy-21" value="digit%2 ==0" style="rhombus;whiteSpace=wrap;html=1;" vertex="1" parent="WIyWlLk6GJQsqaUBKTNV-1">
          <mxGeometry x="320" y="710" width="120" height="40" as="geometry" />
        </mxCell>
        <mxCell id="1wTIjPFLk3U6bIbS4Kjy-25" style="edgeStyle=orthogonalEdgeStyle;rounded=0;orthogonalLoop=1;jettySize=auto;html=1;" edge="1" parent="WIyWlLk6GJQsqaUBKTNV-1" source="1wTIjPFLk3U6bIbS4Kjy-23">
          <mxGeometry relative="1" as="geometry">
            <mxPoint x="630" y="510" as="targetPoint" />
          </mxGeometry>
        </mxCell>
        <mxCell id="1wTIjPFLk3U6bIbS4Kjy-23" value="N/=10" style="whiteSpace=wrap;html=1;" vertex="1" parent="WIyWlLk6GJQsqaUBKTNV-1">
          <mxGeometry x="350" y="800" width="60" height="30" as="geometry" />
        </mxCell>
        <mxCell id="1wTIjPFLk3U6bIbS4Kjy-26" value="True" style="text;html=1;align=center;verticalAlign=middle;resizable=0;points=[];autosize=1;strokeColor=none;fillColor=none;" vertex="1" parent="WIyWlLk6GJQsqaUBKTNV-1">
          <mxGeometry x="380" y="580" width="50" height="30" as="geometry" />
        </mxCell>
        <mxCell id="1wTIjPFLk3U6bIbS4Kjy-27" value="False" style="text;html=1;align=center;verticalAlign=middle;resizable=0;points=[];autosize=1;strokeColor=none;fillColor=none;" vertex="1" parent="WIyWlLk6GJQsqaUBKTNV-1">
          <mxGeometry x="375" y="768" width="50" height="30" as="geometry" />
        </mxCell>
        <mxCell id="1wTIjPFLk3U6bIbS4Kjy-37" value="" style="edgeStyle=orthogonalEdgeStyle;rounded=0;orthogonalLoop=1;jettySize=auto;html=1;" edge="1" parent="WIyWlLk6GJQsqaUBKTNV-1" source="1wTIjPFLk3U6bIbS4Kjy-28" target="1wTIjPFLk3U6bIbS4Kjy-36">
          <mxGeometry relative="1" as="geometry" />
        </mxCell>
        <mxCell id="1wTIjPFLk3U6bIbS4Kjy-28" value=":cout" style="whiteSpace=wrap;html=1;" vertex="1" parent="WIyWlLk6GJQsqaUBKTNV-1">
          <mxGeometry x="230" y="555" width="50" height="30" as="geometry" />
        </mxCell>
        <mxCell id="1wTIjPFLk3U6bIbS4Kjy-33" value="" style="edgeStyle=orthogonalEdgeStyle;rounded=0;orthogonalLoop=1;jettySize=auto;html=1;" edge="1" parent="WIyWlLk6GJQsqaUBKTNV-1" source="1wTIjPFLk3U6bIbS4Kjy-30" target="1wTIjPFLk3U6bIbS4Kjy-23">
          <mxGeometry relative="1" as="geometry" />
        </mxCell>
        <mxCell id="1wTIjPFLk3U6bIbS4Kjy-30" value="product=degit" style="whiteSpace=wrap;html=1;" vertex="1" parent="WIyWlLk6GJQsqaUBKTNV-1">
          <mxGeometry x="190" y="805" width="90" height="20" as="geometry" />
        </mxCell>
        <mxCell id="1wTIjPFLk3U6bIbS4Kjy-34" value="True" style="text;html=1;align=center;verticalAlign=middle;resizable=0;points=[];autosize=1;strokeColor=none;fillColor=none;" vertex="1" parent="WIyWlLk6GJQsqaUBKTNV-1">
          <mxGeometry x="230" y="738" width="50" height="30" as="geometry" />
        </mxCell>
        <mxCell id="1wTIjPFLk3U6bIbS4Kjy-35" value="False" style="text;html=1;align=center;verticalAlign=middle;resizable=0;points=[];autosize=1;strokeColor=none;fillColor=none;" vertex="1" parent="WIyWlLk6GJQsqaUBKTNV-1">
          <mxGeometry x="290" y="570" width="50" height="30" as="geometry" />
        </mxCell>
        <mxCell id="1wTIjPFLk3U6bIbS4Kjy-39" value="" style="edgeStyle=orthogonalEdgeStyle;rounded=0;orthogonalLoop=1;jettySize=auto;html=1;" edge="1" parent="WIyWlLk6GJQsqaUBKTNV-1" source="1wTIjPFLk3U6bIbS4Kjy-36" target="1wTIjPFLk3U6bIbS4Kjy-38">
          <mxGeometry relative="1" as="geometry" />
        </mxCell>
        <mxCell id="1wTIjPFLk3U6bIbS4Kjy-36" value="Product of even degits in the entered number" style="whiteSpace=wrap;html=1;" vertex="1" parent="WIyWlLk6GJQsqaUBKTNV-1">
          <mxGeometry x="80" y="550" width="100" height="40" as="geometry" />
        </mxCell>
        <mxCell id="1wTIjPFLk3U6bIbS4Kjy-41" value="" style="edgeStyle=orthogonalEdgeStyle;rounded=0;orthogonalLoop=1;jettySize=auto;html=1;" edge="1" parent="WIyWlLk6GJQsqaUBKTNV-1" source="1wTIjPFLk3U6bIbS4Kjy-38" target="1wTIjPFLk3U6bIbS4Kjy-40">
          <mxGeometry relative="1" as="geometry" />
        </mxCell>
        <mxCell id="1wTIjPFLk3U6bIbS4Kjy-38" value="product" style="whiteSpace=wrap;html=1;" vertex="1" parent="WIyWlLk6GJQsqaUBKTNV-1">
          <mxGeometry x="80" y="660" width="100" height="40" as="geometry" />
        </mxCell>
        <mxCell id="1wTIjPFLk3U6bIbS4Kjy-43" value="" style="edgeStyle=orthogonalEdgeStyle;rounded=0;orthogonalLoop=1;jettySize=auto;html=1;" edge="1" parent="WIyWlLk6GJQsqaUBKTNV-1" source="1wTIjPFLk3U6bIbS4Kjy-40" target="1wTIjPFLk3U6bIbS4Kjy-42">
          <mxGeometry relative="1" as="geometry" />
        </mxCell>
        <mxCell id="1wTIjPFLk3U6bIbS4Kjy-40" value=":endl" style="whiteSpace=wrap;html=1;" vertex="1" parent="WIyWlLk6GJQsqaUBKTNV-1">
          <mxGeometry x="100" y="780" width="60" height="30" as="geometry" />
        </mxCell>
        <mxCell id="1wTIjPFLk3U6bIbS4Kjy-42" value="0" style="ellipse;whiteSpace=wrap;html=1;" vertex="1" parent="WIyWlLk6GJQsqaUBKTNV-1">
          <mxGeometry x="90" y="865" width="80" height="35" as="geometry" />
        </mxCell>
      </root>
    </mxGraphModel>
  </diagram>
</mxfile>
